<svg width="892" height="288" viewBox="0 0 892 288" fill="none" xmlns="http://www.w3.org/2000/svg">
<path d="M149.4 56.85V221.69C149.4 245.68 128.14 265.19 102 265.19H32.17V278.56H0V195.59H32.17V208.96H93.16V69.6H32.17V82.95H0V0H32.17V13.37H102C128.14 13.37 149.4 32.88 149.4 56.85Z" fill="#F4F4F4"/>
<path d="M263.18 145.33C261.76 140.28 259.11 135.37 255.24 130.62C251.36 125.87 245.84 122.01 238.72 119.04C231.59 116.09 223.05 114.6 213.11 114.6C201.26 114.6 191.52 116.91 183.92 121.51C176.3 126.12 171.04 132.24 168.11 139.84C165.18 147.44 163.72 158.01 163.72 171.55V208.86C163.72 221.22 164.53 230.48 166.14 236.67C167.74 242.85 170.44 248.12 174.2 252.47C177.97 256.82 183.25 260.07 190.06 262.23C196.87 264.38 205.16 265.47 214.96 265.47C223.74 265.47 231.51 264.21 238.28 261.68C245.05 259.16 250.59 255.25 254.9 249.95C259.22 244.64 262.03 238.93 263.35 232.83C264.67 226.72 265.32 217.12 265.32 204.03V168.37C265.32 158.05 264.62 150.37 263.18 145.33ZM214.52 240.8C200.12 240.8 188.45 225.65 188.45 206.96C188.45 188.27 214.52 139.27 214.52 139.27C214.52 139.27 240.6 188.27 240.6 206.96C240.6 225.65 228.92 240.8 214.52 240.8Z" fill="#F4F4F4"/>
<path d="M652.88 192.62H595.5V224.11C595.5 230.69 595.97 234.94 596.93 236.84C597.88 238.74 599.71 239.69 602.42 239.69C605.78 239.69 608.03 238.43 609.17 235.9C610.3 233.38 610.87 228.49 610.87 221.25V202.05H652.89V212.8C652.89 221.8 652.32 228.71 651.19 233.54C650.05 238.37 647.4 243.52 643.24 249.01C639.07 254.5 633.78 258.61 627.39 261.35C620.99 264.09 612.96 265.46 603.31 265.46C593.66 265.46 585.68 264.11 578.51 261.4C571.34 258.69 565.76 254.98 561.78 250.26C557.79 245.54 555.03 240.35 553.5 234.68C551.96 229.01 551.2 220.76 551.2 209.94V167.48C551.2 154.75 552.92 144.71 556.36 137.36C559.8 130.01 565.43 124.38 573.26 120.46C581.09 116.55 590.08 114.59 600.25 114.59C612.68 114.59 622.94 116.95 631.03 121.67C639.11 126.39 644.78 132.64 648.04 140.43C651.29 148.22 652.92 159.18 652.92 173.29V192.6L652.88 192.62ZM608.44 168.92V158.28C608.44 150.75 608.04 145.88 607.23 143.69C606.42 141.5 604.78 140.4 602.29 140.4C599.22 140.4 597.31 141.33 596.58 143.2C595.85 145.07 595.48 150.1 595.48 158.29V168.93H608.43L608.44 168.92Z" fill="#F4F4F4"/>
<path d="M355.43 117.24C347.93 113.73 338.82 111.97 328.1 111.97C321.29 111.97 315.02 112.85 309.26 114.6C306.41 115.46 303.69 116.55 301.11 117.84C293.28 121.76 287.65 127.39 284.22 134.73C280.77 142.09 279.06 152.12 279.06 164.86V207.32C279.06 209.62 279.1 211.8 279.16 213.87C279.54 220.01 280.41 224.97 281.8 228.78C283.69 234.01 287.23 238.24 292.38 241.45C297.54 244.66 304.11 246.27 312.08 246.27C316.69 246.27 321.09 245.39 325.3 243.63C329.51 241.88 333.5 239.27 337.32 235.82V246.81C337.32 253.11 336.77 257.25 335.67 259.22C334.57 261.21 332.34 262.19 328.97 262.19C324.29 262.19 321.95 258.98 321.95 252.54H278.94C279.23 266.58 283.66 276 292.21 280.8C300.77 285.58 312.11 287.99 326.22 287.99C337.7 287.99 347.24 286.68 354.81 284.1C362.39 281.5 368.29 277.72 372.53 272.8C376.78 267.86 379.25 263.17 379.94 258.76C380.63 254.33 380.99 244.55 380.99 229.4V117.27H355.44L355.43 117.24ZM336.55 200.96C336.55 209.23 336.11 214.52 335.23 216.87C334.35 219.21 332.45 220.37 329.52 220.37C326.96 220.37 325.27 219.4 324.48 217.47C323.91 216.09 323.54 213.58 323.38 209.91C323.31 208.41 323.28 206.7 323.28 204.8V155.86C323.28 153.94 323.33 152.22 323.44 150.7C323.57 145.38 323.91 142.01 324.49 140.55C325.22 138.69 327.12 137.75 330.2 137.75C332.68 137.75 334.33 138.85 335.14 141.04C335.47 141.92 335.71 143.2 335.9 144.92C335.9 144.93 335.91 144.95 335.91 144.96C336.34 147.23 336.56 150.87 336.56 155.86V200.96H336.55Z" fill="#F4F4F4"/>
<path d="M765.35 172.21H723.55V155.42C723.55 149.57 723.07 145.6 722.12 143.52C721.17 141.44 719.41 140.39 716.85 140.39C714.29 140.39 712.57 141.31 711.69 143.13C710.81 144.96 710.37 149.05 710.37 155.42V224.11C710.37 229.3 711.03 233.2 712.34 235.8C713.66 238.4 715.59 239.7 718.16 239.7C721.16 239.7 723.19 238.35 724.25 235.64C725.31 232.93 725.84 227.81 725.84 220.28V202.94H765.34C765.27 214.57 764.85 223.29 764.08 229.11C763.31 234.93 760.86 240.89 756.73 246.99C752.6 253.1 747.2 257.71 740.55 260.81C733.89 263.92 725.66 265.47 715.86 265.47C703.35 265.47 693.44 263.33 686.13 259.05C678.81 254.77 673.64 248.77 670.6 241.06C667.56 233.34 666.05 222.39 666.05 208.2V166.83C666.05 154.47 667.29 145.14 669.78 138.85C672.27 132.56 677.57 126.95 685.69 122.01C693.81 117.07 703.68 114.6 715.31 114.6C726.94 114.6 736.74 117.05 744.93 121.95C753.12 126.85 758.57 133.03 761.28 140.49C763.98 147.95 765.34 158.52 765.34 172.2L765.35 172.21Z" fill="#F4F4F4"/>
<path d="M442.43 117.24H396.79V262.84H442.43V117.24Z" fill="#F4F4F4"/>
<path d="M526.41 139.65V149.97L482.83 159.01V148.69L526.41 139.65Z" fill="#F4F4F4"/>
<path d="M526.41 161.89V172.21L482.83 181.25V170.93L526.41 161.89Z" fill="#F4F4F4"/>
<path d="M526.41 184.13V194.45L482.83 203.49V193.17L526.41 184.13Z" fill="#F4F4F4"/>
<path d="M526.41 206.37V216.69L482.83 225.73V215.41L526.41 206.37Z" fill="#F4F4F4"/>
<path d="M526.41 228.61V238.93L482.83 247.97V237.65L526.41 228.61Z" fill="#F4F4F4"/>
<path d="M482.83 259.89L526.41 250.85V262.83H482.83V259.89Z" fill="#F4F4F4"/>
<path d="M232.79 213.19C230.88 223.82 225.67 230.18 217.15 232.28Z" fill="#F4F4F4"/>
<path d="M612.45 103.55H540.33L540.87 104.03C540.87 104.03 540.82 104.06 540.82 104.08V137.93H468.44V104.08C468.44 104.08 468.4 104.03 468.37 104.03L468.91 103.55H396.79V76.09C396.79 70.94 402.96 66.77 410.57 66.77H444.12L488.29 86.22L492.34 82.6C492.34 82.6 492.35 82.59 492.37 82.59H496.76C496.76 82.59 496.83 82.56 496.83 82.52V78.86C496.83 74.43 500.45 70.47 504.88 70.6C506.9 70.68 508.77 71.54 510.12 72.89C511.54 74.3 512.42 76.26 512.42 78.4V82.52C512.42 82.52 512.46 82.59 512.49 82.59H516.84C516.84 82.59 516.88 82.59 516.89 82.6L520.94 86.22L565.12 66.77H598.68C606.28 66.77 612.45 70.94 612.45 76.09V103.55Z" fill="#F4F4F4"/>
<path d="M881.73 191.27H846.74V218.43L827.98 208.54L819.22 203.92L795.22 191.27H827.98V162.94L846.74 172.83L855.92 177.66L881.73 191.27Z" fill="#F4F4F4"/>
<path d="M825.1 190.68L846.61 190.69H858.1" fill="#F4F4F4"/>
<path d="M812.18 114.61V175.19L778.27 175.18V114.61H812.18Z" fill="#F4F4F4"/>
<path d="M892 206.15V265.18H858.1V206.14L892 206.15Z" fill="#F4F4F4"/>
<path d="M812.17 224.04V265.18H778.27V206.17L799.6 217.41L812.17 224.04Z" fill="#F4F4F4"/>
<path d="M891.99 114.26V173.29H890.57L873.69 164.39L858.09 156.18V114.25L891.99 114.26Z" fill="#F4F4F4"/>
</svg>
